<svg xmlns="http://www.w3.org/2000/svg" width="128" height="40" fill="none" viewBox="0 0 128 40"><path fill="#fec600" d="M125.179.828C123.802.386 121.167 0 118.411 0c-9.942 0-21.741 6.786-29.707 17.545-4.073 5.517-5.091 8.22-5.091 8.22s.24-4.855-.48-7.944c-.419-1.987-1.198-2.538-2.336-2.814-1.677-.386-3.294.441-4.252 1.434 1.078.938 1.976 2.759 2.216 4.745.3 2.538.36 4.91.42 9.545 0 .772-.18 1.103.478 1.103h3.714c.779 0 1.258-.275 1.497-.717 1.438-3.2 5.51-10.924 10.422-15.669C103.557 7.503 110.625 4.8 118.172 4.8c3.593 0 5.989.441 7.606 1.38 1.498-.442 3.235-4.083-.599-5.352"/><path fill="#fff" fill-rule="evenodd" d="M23.539 10.317v19.587c0 1.158-1.018 2.096-2.276 2.096-1.198 0-2.276-.938-2.276-2.096V10.317c0-1.103 1.018-2.096 2.276-2.096s2.276.938 2.276 2.096m80.618 12.138H96.61c.42-1.71 1.737-2.814 3.773-2.814 1.977 0 3.414 1.214 3.774 2.814m4.492 1.6c0-4.634-3.534-7.945-8.266-7.945-4.731 0-8.505 3.587-8.505 7.945S95.712 32 100.443 32c2.336 0 4.852-.662 6.768-2.262.539-.441.779-1.655 0-2.428-.778-.717-1.976-.662-2.815-.055-1.018.662-2.156 1.214-3.773 1.214-2.216 0-3.833-1.269-4.073-3.035h10.482c.838 0 1.617-.551 1.617-1.379m14.075 0c0 2.317-1.617 4.193-4.192 4.193s-3.893-1.876-3.893-4.193 1.497-4.193 4.072-4.193 4.013 1.876 4.013 4.193m4.552 5.904v-6.07c0-4.358-3.414-7.724-8.624-7.724-4.732 0-8.625 3.587-8.625 7.945 0 4.58 3.174 7.945 8.026 7.945 2.156 0 4.252-1.269 4.731-2.262 0 1.38 1.018 2.262 2.216 2.262 1.258 0 2.216-1.048 2.216-2.207zm-89.302-5.904c0 2.317-1.618 4.193-4.193 4.193s-3.893-1.876-3.893-4.193 1.437-4.193 4.073-4.193c2.515 0 4.013 1.876 4.013 4.193m4.552 5.738V23.89c0-4.36-3.474-7.725-8.625-7.725-4.732 0-8.625 3.587-8.625 7.945.06 4.58 3.234 7.89 8.086 7.89 2.156 0 4.252-1.269 4.731-2.262 0 1.38 1.019 2.262 2.216 2.262 1.258 0 2.217-1.048 2.217-2.207m14.554-1.49c1.018 0 1.856.773 1.856 1.71 0 .939-.898 1.711-1.856 1.711h-7.667q-.54.001-1.078.012c-.719.012-1.438.025-2.156-.012-.899 0-1.857-.828-1.857-1.71 0-.497.12-.938.48-1.325l7.845-8.827H46.18c-.959 0-1.857-.772-1.857-1.71s.838-1.71 1.857-1.71h10.66c1.139 0 1.977.827 1.977 1.82 0 .441-.18.883-.479 1.214l-7.846 8.827zm15.093-4.248c0 2.317-1.617 4.193-4.192 4.193s-3.893-1.876-3.893-4.193 1.437-4.193 4.073-4.193c2.575 0 4.012 1.876 4.012 4.193m4.552 5.904v-6.07c0-4.358-3.414-7.724-8.624-7.724-4.732 0-8.625 3.587-8.625 7.945 0 4.58 3.174 7.945 8.026 7.945 2.156 0 4.252-1.269 4.731-2.262 0 1.38 1.018 2.262 2.216 2.262 1.258 0 2.216-1.048 2.216-2.207zm-68.16-1.71c2.635 0 4.073-1.877 4.073-4.194s-1.438-4.193-4.073-4.193-4.073 1.876-4.073 4.193 1.497 4.193 4.073 4.193m.48-12.139c4.611 0 8.145 3.587 8.145 7.945S13.656 32 9.044 32c-2.096 0-3.953-1.159-4.492-2.152v8.056C4.552 39.062 3.534 40 2.276 40S0 39.062 0 37.904V18.262c0-1.159 1.018-2.152 2.216-2.152 1.018 0 2.156.883 2.156 2.262.839-1.213 2.576-2.262 4.672-2.262" clip-rule="evenodd"/></svg>