<svg xmlns="http://www.w3.org/2000/svg" width="120" height="120" fill="none" viewBox="0 0 120 120"><path fill="#fff" d="M60.36 117.964c31.868 0 57.701-25.833 57.701-57.7 0-31.866-25.833-57.7-57.7-57.7s-57.7 25.834-57.7 57.7 25.833 57.7 57.7 57.7"/><path fill="#006241" d="M66.163 27.52c-.513-.096-2.95-.497-5.802-.497-2.853 0-5.29.417-5.802.497-.289.048-.401-.225-.177-.401.193-.144 5.979-4.552 5.979-4.552s5.786 4.408 5.978 4.552c.224.16.112.449-.176.4m-9.986 28.577s-.304.112-.384.385c1.218.93 2.051 3.045 4.568 3.045s3.366-2.116 4.568-3.045c-.08-.289-.385-.385-.385-.385s-1.587.369-4.183.369c-2.613 0-4.184-.369-4.184-.369m4.184-3.574c-.706 0-.866-.272-1.33-.256-.465 0-1.347.368-1.54.705a.76.76 0 0 0 .193.449c1.026.16 1.49.72 2.677.72 1.186 0 1.65-.576 2.676-.72a.63.63 0 0 0 .193-.45c-.193-.336-1.074-.688-1.54-.704-.48-.016-.624.256-1.33.256m57.603 10.915a58 58 0 0 1-.368 4.103c-6.523 1.09-8.864-4.744-15.547-4.456.401 1.41.721 2.87.978 4.344 5.529 0 7.741 5.16 13.88 4.391a59 59 0 0 1-1.154 4.665c-4.857.48-6.556-4.344-12.181-4.216a38 38 0 0 1 .032 3.766c4.792-.063 6.347 4.376 10.914 4.168a63 63 0 0 1-1.907 4.552c-3.286-.176-4.407-4.392-9.392-4.055a35 35 0 0 1-.577 3.19c4.343-.305 5.273 3.686 8.366 4.006a53 53 0 0 1-2.548 4.216c-1.843-.978-3.43-3.96-6.924-4.135.353-1.106.673-2.212.946-3.366-3.094 0-6.636-1.202-9.601-3.911.962-5.482-7.533-11.043-7.533-15.05 0-4.344 2.212-6.764 2.212-12.63 0-4.36-2.116-9.088-5.305-12.31a10.8 10.8 0 0 0-1.972-1.586c2.933 3.622 5.177 7.934 5.177 12.902 0 5.53-2.58 8.447-2.58 13.544s7.453 9.52 7.453 14.777c0 2.068-.658 4.087-2.837 8.062 3.35 3.35 7.709 5.177 10.53 5.177.913 0 1.41-.272 1.73-.993.289-.626.546-1.25.802-1.876 3.03.112 4.424 2.87 6.091 3.975a57 57 0 0 1-2.901 3.59c-1.122-1.25-2.645-3.35-4.857-3.926-.4.769-.817 1.538-1.266 2.276 1.907.512 3.206 2.436 4.216 3.702a65 65 0 0 1-3.398 3.254c-.738-1.138-1.892-2.597-3.174-3.382a33 33 0 0 1-1.474 1.875c1.09.737 2.067 2.068 2.692 3.157a63 63 0 0 1-4.231 3.11c-.721-5.866-8.72-9.873-6.571-16.685-.706 1.202-1.555 2.709-1.555 4.504 0 4.92 5.24 8.831 5.658 13.719a60 60 0 0 1-3.334 1.844c-.192-5.386-5.738-11.252-5.738-15.675 0-4.921 6.46-9.874 6.46-15.692s-7.438-9.84-7.438-14.954c0-5.113 3.158-8.046 3.158-14.585 0-4.792-2.276-9.649-5.786-12.742-.625-.545-1.234-.994-1.972-1.362 3.318 3.974 5.241 7.597 5.241 13.062 0 6.155-3.622 9.569-3.622 15.595 0 6.027 7.293 9.377 7.293 14.986 0 5.61-6.796 10.354-6.796 16.124 0 5.241 5.994 10.482 6.074 16.717a58 58 0 0 1-4.007 1.571c.77-6.299-5.978-12.774-5.978-17.92 0-5.609 7.052-10.433 7.052-16.492 0-6.058-7.164-8.863-7.164-15.082s4.408-9.649 4.408-16.509c0-5.353-2.645-10.161-6.508-13.142l-.24-.193c-.369-.272-.657.065-.4.37 2.724 3.413 4.182 6.859 4.182 11.956 0 6.283-5.048 11.38-5.048 17.454 0 7.18 6.78 9.232 6.78 15.114s-7.277 10.595-7.277 16.845c0 5.802 6.892 12.23 5.706 18.929a61 61 0 0 1-4.2.914c1.283-8.335-5.465-14.313-5.465-19.762 0-5.899 7.533-11.156 7.533-16.926 0-5.433-5.417-7.212-6.123-12.774-.096-.753-.705-1.314-1.554-1.186-1.106.192-2.5.93-4.713.93-2.211 0-3.622-.722-4.728-.93-.833-.144-1.442.417-1.538 1.186-.706 5.562-6.123 7.34-6.123 12.774 0 5.77 7.533 11.027 7.533 16.926 0 5.449-6.748 11.427-5.465 19.762a61 61 0 0 1-4.2-.914c-1.186-6.699 5.706-13.127 5.706-18.929 0-6.25-7.276-10.963-7.276-16.845S51 72.397 51 65.217c0-6.09-5.05-11.187-5.05-17.454 0-5.113 1.46-8.559 4.2-11.957.256-.32-.048-.641-.4-.369l-.241.193c-3.863 2.98-6.491 7.79-6.491 13.142 0 6.86 4.407 10.306 4.407 16.51 0 6.202-7.164 9.023-7.164 15.081 0 6.059 7.052 10.883 7.052 16.493 0 5.129-6.748 11.62-5.978 17.919a51 51 0 0 1-4.007-1.571c.096-6.219 6.074-11.476 6.074-16.717 0-5.77-6.796-10.498-6.796-16.124 0-5.61 7.293-8.96 7.293-14.986s-3.622-9.44-3.622-15.595c0-5.481 1.923-9.087 5.24-13.062a9.8 9.8 0 0 0-1.97 1.362c-3.51 3.093-5.803 7.95-5.803 12.742 0 6.54 3.174 9.473 3.174 14.585 0 5.113-7.437 9.136-7.437 14.954s6.46 10.755 6.46 15.692c0 4.423-5.546 10.289-5.739 15.675a51 51 0 0 1-3.334-1.844c.417-4.888 5.658-8.799 5.658-13.72 0-1.794-.85-3.301-1.554-4.503 2.163 6.796-5.834 10.819-6.556 16.685a57 57 0 0 1-4.231-3.11c.625-1.089 1.587-2.42 2.693-3.157a33 33 0 0 1-1.475-1.875c-1.282.785-2.436 2.244-3.174 3.382a59 59 0 0 1-3.397-3.254c1.01-1.266 2.308-3.19 4.215-3.703a31 31 0 0 1-1.25-2.275c-2.212.577-3.735 2.676-4.857 3.926a57 57 0 0 1-2.9-3.59c1.682-1.106 3.06-3.863 6.106-3.975.256.625.513 1.266.801 1.876.337.72.818.993 1.731.993 2.821 0 7.18-1.827 10.53-5.177-2.18-3.975-2.836-5.994-2.836-8.062 0-5.257 7.469-9.68 7.469-14.777s-2.58-8.014-2.58-13.544c0-4.985 2.243-9.28 5.176-12.902-.721.449-1.362.962-1.971 1.587-3.19 3.237-5.306 7.95-5.306 12.309 0 5.866 2.196 8.286 2.196 12.63 0 4.007-8.494 9.584-7.533 15.05-2.965 2.709-6.507 3.91-9.6 3.91a40 40 0 0 0 .945 3.367c-3.494.192-5.08 3.157-6.924 4.135a59 59 0 0 1-2.548-4.216c3.11-.32 4.039-4.311 8.366-4.007a53 53 0 0 1-.577-3.19c-4.984-.336-6.122 3.864-9.392 4.056a57 57 0 0 1-1.907-4.552c4.568.208 6.122-4.215 10.915-4.167-.016-.449-.016-.898-.016-1.347 0-.817.032-1.618.064-2.42-5.61-.128-7.325 4.696-12.181 4.216a58 58 0 0 1-1.154-4.665c6.138.754 8.35-4.391 13.88-4.391.24-1.475.577-2.917.977-4.344-6.683-.288-9.023 5.53-15.563 4.456a57 57 0 0 1-.368-4.103c7.597.85 10.434-5.385 17.342-4.632a42 42 0 0 1 2.26-4.792c-8.671-1.523-11.604 5.721-19.666 4.616C3.558 27.52 29.042 2.564 60.36 2.564s56.802 24.956 57.668 56.05c-8.062 1.105-11.012-6.139-19.682-4.616a40 40 0 0 1 2.259 4.792c6.924-.753 9.777 5.497 17.358 4.648M35.55 39.236c-4.248-1.731-9.393-1.33-13.784 1.49-.673-4.087-2.901-7.709-6.059-9.905-.433-.304-.881-.016-.85.497.674 8.64-4.375 16.14-10.594 22.728 6.396 1.923 11.845-6.315 20.147-3.43a43.2 43.2 0 0 1 11.14-11.38m24.81-5.225c-5.353 0-9.84 3.03-11.026 6.94-.097.304.032.497.384.337.962-.433 2.068-.641 3.254-.641 2.18 0 4.103.8 5.24 2.195.514 1.667.546 4.071-.015 5.434-.898-.193-1.218-.898-2.1-.898-.881 0-1.555.625-3.045.625s-1.667-.705-2.645-.705c-1.154 0-1.362 1.186-1.362 2.532 0 5.963 5.481 14.185 11.316 14.185 5.834 0 11.315-8.206 11.315-14.185 0-1.346-.272-2.484-1.474-2.644-.593.432-1.154.817-2.533.817-1.49 0-1.907-.625-2.772-.625-1.058 0-.946 2.228-2.212 2.356-.834-2.02-.882-4.6-.177-6.908 1.138-1.394 3.062-2.196 5.241-2.196 1.187 0 2.292.209 3.254.642.353.16.465-.032.385-.337-1.186-3.895-5.674-6.924-11.027-6.924m8.527 8.559c-1.282 0-2.788.4-3.734 1.442-.096.289-.096.706.048.994 2.324-.801 4.392-.833 5.37.273.528-.481.704-.914.704-1.411-.016-.753-.8-1.298-2.388-1.298m-18.736 2.74c1.122-1.121 3.494-1.073 5.946-.176.112-1.218-2.083-2.564-4.263-2.564-1.587 0-2.372.529-2.372 1.314-.016.497.16.946.689 1.426M87.063 25.1c-4.231.304-7.902 1.746-10.867 4.167 1.266-3.575 2.869-6.7 4.889-9.745-5.386.577-9.89 2.548-13.16 5.898l-2.58-6.748 5.706-5.048-7.645-.545-3.045-7.1-3.046 7.1-7.645.545 5.706 5.048-2.564 6.748c-3.286-3.366-7.79-5.337-13.175-5.898 2.02 3.03 3.622 6.155 4.888 9.745-2.965-2.42-6.635-3.879-10.883-4.167 2.533 3.27 4.793 6.731 6.46 10.482.192.416.593.56 1.025.336 5.786-2.885 12.326-4.503 19.234-4.503a43.05 43.05 0 0 1 19.233 4.503c.433.209.833.08 1.026-.336 1.65-3.735 3.91-7.213 6.443-10.483m9.232 25.5c8.302-2.87 13.752 5.353 20.147 3.43-6.203-6.588-11.252-14.089-10.595-22.728.049-.513-.416-.801-.849-.497-3.157 2.196-5.385 5.819-6.059 9.906-4.391-2.821-9.536-3.222-13.783-1.491A43.7 43.7 0 0 1 96.295 50.6m12.598 60.681h-1.811v6.01h-.962v-6.01h-1.811v-.818h4.568v.818zm7.917 5.994-.657-5.113-1.987 5.113h-.641l-2.052-5.145-.609 5.145h-.913l.849-6.828h.946l2.131 5.274 2.116-5.274h.946l.849 6.828z"/></svg>